#!OML:ASF G:\JayActor3\Patient Classification 1\Patient 1\Session 6\male.ASF
:FULLY-SPECIFIED
:DEGREES
1204
root 7.86167 16.4693 -21.6934 27.2885 -131.653 -12.6558
lowerback 16.1426 -3.32577 7.40033
upperback 13.8756 -5.43686 0.799611
thorax 5.51449 -2.89396 -2.72527
lowerneck -6.80208 1.71328 3.23388
upperneck 8.38338 2.41989 -5.51958
head 4.12493 1.02224 -2.31279
rclavicle -1.98785e-014 -1.98785e-014
rhumerus 44.3323 23.7621 -51.5754
rradius 70.3816
rwrist -3.87182
rhand -37.6663 -12.1179
rfingers 7.12502
rthumb -10.7174 -41.8245
lclavicle -1.98785e-014 -1.98785e-014
lhumerus 45.1641 -10.239 62.6805
lradius 54.5102
lwrist 43.4375
lhand -6.352 -1.01659
lfingers 7.12502
lthumb 19.4939 28.0262
rfemur -37.216 21.3293 -4.84199
rtibia 41.1386
rfoot -30.8444 -35.4084
rtoes 2.94696
lfemur -20.036 2.86733 -12.1299
ltibia 15.7766
lfoot 6.51471 17.7303
ltoes -20.6331
1205
root 7.87321 16.4731 -21.6885 27.6177 -131.675 -12.6179
lowerback 16.3868 -3.33467 7.40329
upperback 13.8416 -5.42678 0.860538
thorax 5.35584 -2.8989 -2.64282
lowerneck -6.85401 1.74079 3.26365
upperneck 7.99881 2.45012 -5.56322
head 4.00155 1.04177 -2.32651
rclavicle 2.8625e-014 7.95139e-015
rhumerus 45.6511 23.5016 -51.31
rradius 69.6947
rwrist -4.21699
rhand -37.9835 -12.2289
rfingers 7.12502
rthumb -11.0233 -41.9195
lclavicle 2.8625e-014 7.95139e-015
lhumerus 46.3233 -10.2604 62.4522
lradius 53.9831
lwrist 43.7596
lhand -5.67695 -0.928561
lfingers 7.12502
lthumb 20.1429 28.0472
rfemur -37.6582 21.4037 -5.06024
rtibia 41.0872
rfoot -30.9268 -35.4912
rtoes 3.02436
lfemur -20.4472 2.92231 -12.1364
ltibia 15.7287
lfoot 6.62381 17.8364
ltoes -20.6542
1206
root 7.88387 16.4767 -21.6847 27.9577 -131.697 -12.5706
lowerback 16.6123 -3.33855 7.40102
upperback 13.8015 -5.4107 0.93376
thorax 5.20221 -2.90107 -2.54645
lowerneck -6.89787 1.76587 3.28657
upperneck 7.65929 2.47769 -5.60678
head 3.89291 1.05888 -2.3398
rclavicle 1.03368e-014 -3.18055e-015
rhumerus 46.9576 23.3056 -51.0349
rradius 68.9675
rwrist -4.66507
rhand -38.3433 -12.4514
rfingers 7.12502
rthumb -11.3704 -42.1232
lclavicle 1.03368e-014 -3.18055e-015
lhumerus 47.454 -10.3448 62.1554
lradius 53.4285
lwrist 44.0219
lhand -5.03506 -0.859322
lfingers 7.12502
lthumb 20.7597 28.0502
rfemur -38.1255 21.4977 -5.28566
rtibia 41.0456
rfoot -31.0288 -35.6026
rtoes 3.12518
lfemur -20.8709 2.97422 -12.1349
ltibia 15.6813
lfoot 6.72444 17.9563
ltoes -20.6696
1207
root 7.89357 16.4801 -21.6823 28.3048 -131.73 -12.5155
lowerback 16.8332 -3.33421 7.38002
upperback 13.7488 -5.38361 1.02132
thorax 5.04015 -2.89946 -2.42585
lowerneck -6.92786 1.78816 3.30793
upperneck 7.36758 2.50316 -5.66504
head 3.79914 1.07345 -2.3587
rclavicle -4.37326e-014 3.73715e-014
rhumerus 48.2458 23.1845 -50.7348
rradius 68.2061
rwrist -5.2358
rhand -38.7078 -12.7698
rfingers 7.12502
rthumb -11.7219 -42.4218
lclavicle -4.37326e-014 3.73715e-014
lhumerus 48.5323 -10.4837 61.8018
lradius 52.8515
lwrist 44.1269
lhand -4.34065 -0.844356
lfingers 7.12502
lthumb 21.4268 27.9908
rfemur -38.6168 21.6146 -5.52175
rtibia 41.0147
rfoot -31.157 -35.7312
rtoes 3.22696
lfemur -21.2962 3.02004 -12.1276
ltibia 15.6308
lfoot 6.81526 18.0991
ltoes -20.6727
1208
root 7.90192 16.4833 -21.6814 28.6536 -131.774 -12.4594
lowerback 17.0214 -3.3185 7.36345
upperback 13.7088 -5.34629 1.10494
thorax 4.91003 -2.89111 -2.31679
lowerneck -6.9497 1.80458 3.34891
upperneck 7.09914 2.51949 -5.7331
head 3.71258 1.0833 -2.3855
rclavicle 7.15625e-015 -3.97569e-015
rhumerus 49.5113 23.0998 -50.4323
rradius 67.4214
rwrist -5.92085
rhand -39.0717 -13.2088
rfingers 7.12502
rthumb -12.0728 -42.8406
lclavicle 7.15625e-015 -3.97569e-015
lhumerus 49.5828 -10.7036 61.3493
lradius 52.2971
lwrist 44.1582
lhand -3.71175 -0.871824
lfingers 7.12502
lthumb 22.0307 27.8934
rfemur -39.116 21.7504 -5.76639
rtibia 40.9947
rfoot -31.3063 -35.8751
rtoes 3.37713
lfemur -21.7077 3.05782 -12.1194
ltibia 15.5727
lfoot 6.89278 18.2635
ltoes -20.66
1209
root 7.90892 16.486 -21.6819 29.0023 -131.827 -12.4082
lowerback 17.2024 -3.28736 7.33777
upperback 13.6716 -5.29136 1.19561
thorax 4.78952 -2.87466 -2.19875
lowerneck -6.95786 1.81126 3.40747
upperneck 6.84818 2.52236 -5.82056
head 3.63 1.0859 -2.42325
rclavicle 2.06736e-014 8.0309e-014
rhumerus 50.7488 23.0454 -50.1035
rradius 66.6152
rwrist -6.7053
rhand -39.4274 -13.7379
rfingers 7.12502
rthumb -12.4158 -43.3491
lclavicle 2.06736e-014 8.0309e-014
lhumerus 50.5868 -11.01 60.8373
lradius 51.7947
lwrist 44.149
lhand -3.21346 -0.965741
lfingers 7.12502
lthumb 22.5091 27.7423
rfemur -39.6155 21.8996 -6.01913
rtibia 40.9862
rfoot -31.4743 -36.0254
rtoes 3.54896
lfemur -22.0979 3.09611 -12.116
ltibia 15.5032
lfoot 6.95871 18.4374
ltoes -20.6439
1210
root 7.91425 16.4884 -21.684 29.3472 -131.886 -12.3696
lowerback 17.3748 -3.24765 7.30916
upperback 13.6408 -5.22801 1.28784
thorax 4.68188 -2.85403 -2.07999
lowerneck -6.94953 1.81223 3.48156
upperneck 6.60838 2.51755 -5.93048
head 3.54894 1.08408 -2.4722
rclavicle 1.51076e-014 -2.14687e-014
rhumerus 51.9491 23.0277 -49.7579
rradius 65.8051
rwrist -7.5186
rhand -39.7748 -14.1617
rfingers 7.12502
rthumb -12.7507 -43.7524
lclavicle 1.51076e-014 -2.14687e-014
lhumerus 51.523 -11.4061 60.2621
lradius 51.4153
lwrist 44.3202
lhand -3.06314 -1.06549
lfingers 7.12502
lthumb 22.6534 27.625
rfemur -40.1002 22.0572 -6.27789
rtibia 40.9899
rfoot -31.657 -36.1805
rtoes 3.7282
lfemur -22.4554 3.13362 -12.1225
ltibia 15.4193
lfoot 7.01131 18.6161
ltoes -20.6115
1211
root 7.91802 16.4902 -21.6875 29.6895 -131.949 -12.3489
lowerback 17.5432 -3.2029 7.27295
upperback 13.6173 -5.16142 1.38179
thorax 4.58533 -2.83238 -1.95673
lowerneck -6.9262 1.80944 3.55627
upperneck 6.37186 2.50754 -6.0435
head 3.46619 1.07962 -2.52264
rclavicle 6.12257e-014 0
rhumerus 53.1109 23.0524 -49.3913
rradius 65.007
rwrist -8.27864
rhand -40.0872 -14.4938
rfingers 7.12502
rthumb -13.0518 -44.0654
lclavicle 6.12257e-014 0
lhumerus 52.3853 -11.8614 59.631
lradius 51.1852
lwrist 44.7155
lhand -3.17562 -1.14142
lfingers 7.12502
lthumb 22.5454 27.5622
rfemur -40.5656 22.2124 -6.5406
rtibia 41.0062
rfoot -31.8504 -36.3296
rtoes 3.93705
lfemur -22.7798 3.17717 -12.1433
ltibia 15.3219
lfoot 7.05801 18.7827
ltoes -20.5856
1212
root 7.91991 16.4915 -21.6923 30.0268 -132.015 -12.3522
lowerback 17.743 -3.16218 7.23327
upperback 13.5815 -5.09517 1.47266
thorax 4.45833 -2.81166 -1.83202
lowerneck -6.88013 1.80626 3.63447
upperneck 6.15235 2.49711 -6.15747
head 3.38529 1.07507 -2.57427
rclavicle -5.00937e-014 2.38542e-014
rhumerus 54.1963 23.1464 -49.0148
rradius 64.2412
rwrist -8.91503
rhand -40.4889 -14.8343
rfingers 7.12502
rthumb -13.4391 -44.3808
lclavicle -5.00937e-014 2.38542e-014
lhumerus 53.1301 -12.3768 58.9741
lradius 51.1203
lwrist 45.3024
lhand -3.70438 -1.19559
lfingers 7.12502
lthumb 22.0378 27.5688
rfemur -40.9999 22.3523 -6.80233
rtibia 41.0353
rfoot -32.0336 -36.4675
rtoes 4.12143
lfemur -23.0649 3.22175 -12.1816
ltibia 15.2126
lfoot 7.09415 18.9376
ltoes -20.5541
1213
root 7.91996 16.4923 -21.6982 30.3478 -132.08 -12.3639
lowerback 17.9709 -3.13006 7.20394
upperback 13.5357 -5.03429 1.55703
thorax 4.30428 -2.79316 -1.71684
lowerneck -6.81413 1.80586 3.70464
upperneck 5.94827 2.49042 -6.25202
head 3.30564 1.07307 -2.61765
rclavicle 9.14409e-014 -7.15625e-014
rhumerus 55.1952 23.3132 -48.6309
rradius 63.537
rwrist -9.41869
rhand -40.9805 -15.0329
rfingers 7.12502
rthumb -13.9129 -44.5474
lclavicle 9.14409e-014 -7.15625e-014
lhumerus 53.749 -12.9099 58.3437
lradius 51.198
lwrist 46.0414
lhand -4.69412 -1.29853
lfingers 7.12502
lthumb 21.0873 27.5748
rfemur -41.4045 22.4736 -7.0506
rtibia 41.0759
rfoot -32.2105 -36.5855
rtoes 4.31042
lfemur -23.3138 3.26316 -12.2234
ltibia 15.097
lfoot 7.12071 19.0835
ltoes -20.5165
